<svg width="18" height="18" fill="none" xmlns="http://www.w3.org/2000/svg"><path fill-rule="evenodd" clip-rule="evenodd" d="M9 18A9 9 0 1 0 9 0a9 9 0 0 0 0 18Z" fill="url('#paint0_linear_247_266')"/><path fill-rule="evenodd" clip-rule="evenodd" d="M9 16.5a7.5 7.5 0 1 0 0-15 7.5 7.5 0 0 0 0 15Z" fill="url('#paint1_linear_247_266')"/><path fill-rule="evenodd" clip-rule="evenodd" d="M9 15.5a6.5 6.5 0 1 0 0-13 6.5 6.5 0 0 0 0 13Z" fill="url('#paint2_linear_247_266')"/><defs><linearGradient id="paint0_linear_247_266" x1="9" y1="0" x2="9" y2="18" gradientUnits="userSpaceOnUse"><stop stop-color="#fff"/><stop offset="1" stop-color="#F7F7F7"/></linearGradient><linearGradient id="paint1_linear_247_266" x1="9" y1="1.5" x2="9" y2="16.5" gradientUnits="userSpaceOnUse"><stop stop-color="#DADADA"/><stop offset=".629" stop-color="#F0EFEF"/><stop offset="1" stop-color="#fff"/></linearGradient><linearGradient id="paint2_linear_247_266" x1="9" y1="2.5" x2="9" y2="15.5" gradientUnits="userSpaceOnUse"><stop stop-color="#fff"/><stop offset="1" stop-color="#F7F7F7"/></linearGradient></defs></svg>