<svg width="32" height="32" viewBox="0 0 32 32" fill="none" xmlns="http://www.w3.org/2000/svg">
<ellipse cx="16" cy="16" rx="16" ry="16" transform="rotate(90 16 16)" fill="white"/>
<path d="M15.4083 17.1667C15.4858 17.2448 15.578 17.3068 15.6795 17.3492C15.7811 17.3915 15.89 17.4132 16 17.4132C16.11 17.4132 16.2189 17.3915 16.3205 17.3492C16.422 17.3068 16.5142 17.2448 16.5917 17.1667L20.4083 13.3417C20.4858 13.2636 20.578 13.2016 20.6795 13.1593C20.7811 13.117 20.89 13.0952 21 13.0952C21.11 13.0952 21.2189 13.117 21.3205 13.1593C21.422 13.2016 21.5142 13.2636 21.5917 13.3417C21.7469 13.4979 21.834 13.7091 21.834 13.9292C21.834 14.1494 21.7469 14.3606 21.5917 14.5167L17.7667 18.3417C17.2979 18.8099 16.6625 19.0729 16 19.0729C15.3375 19.0729 14.7021 18.8099 14.2333 18.3417L10.4083 14.5167C10.2544 14.3615 10.1676 14.152 10.1666 13.9334C10.166 13.8237 10.187 13.715 10.2285 13.6135C10.27 13.512 10.3311 13.4196 10.4083 13.3417C10.4858 13.2636 10.5779 13.2016 10.6795 13.1593C10.781 13.117 10.89 13.0952 11 13.0952C11.11 13.0952 11.2189 13.117 11.3205 13.1593C11.422 13.2016 11.5142 13.2636 11.5916 13.3417L15.4083 17.1667Z" fill="#4F2EE8"/>
</svg>
